#!OML:ASF H:\GeneralSubjects\Female5\Project 1\Capture day 1\Session 1\Female5.ASF
:FULLY-SPECIFIED
:DEGREES
387
root -10.8186 16.1998 2.89064 186.272 -52.6577 -178.394
lowerback 6.33121 1.44827 1.82157
upperback -10.6981 1.78183 0.549292
thorax -15.3713 0.451267 -0.689351
lowerneck -18.4773 6.69811 10.4511
upperneck 26.6493 7.24474 -4.80231
head 12.503 3.49635 -2.42583
rclavicle -3.73218e-014 6.75868e-015
rhumerus -65.1 15.4894 -84.9183
rradius 35.9781
rwrist 3.47943
rhand -27.4054 -10.8808
rfingers 7.12502
rthumb -0.811652 -40.859
lclavicle -3.73218e-014 6.75868e-015
lhumerus -41.6877 -18.6218 90.0311
lradius 48.3282
lwrist -5.43535
lhand -28.554 27.8948
lfingers 7.12502
lthumb -1.92093 57.8659
rfemur -9.62852 19.8049 30.109
rtibia 7.7176
rfoot -10.7779 -5.75852
rtoes -23.5402
lfemur -0.876976 -14.034 -30.4816
ltibia 7.83844
lfoot -40.2194 -1.0632
ltoes -33.8766
388
root -10.8217 16.1983 2.89039 186.218 -53.0327 -178.117
lowerback 6.29104 1.50654 1.92994
upperback -10.6521 1.88605 0.585201
thorax -15.284 0.494581 -0.729325
lowerneck -18.7004 6.53191 10.3505
upperneck 26.553 7.11545 -5.11074
head 12.5041 3.38825 -2.54478
rclavicle -5.96354e-014 -3.08116e-014
rhumerus -64.291 14.9787 -85.2349
rradius 35.9661
rwrist 2.9543
rhand -27.3095 -11.7157
rfingers 7.12502
rthumb -0.718984 -41.6943
lclavicle -5.96354e-014 -3.08116e-014
lhumerus -42.3852 -18.9911 90.9489
lradius 47.7735
lwrist -6.20368
lhand -28.4065 28.1619
lfingers 7.12502
lthumb -1.7785 58.1343
rfemur -9.86756 20.1329 30.229
rtibia 7.84296
rfoot -10.3798 -5.59467
rtoes -18.3061
lfemur -0.790262 -14.3983 -30.2325
ltibia 7.23805
lfoot -40.1385 -2.2296
ltoes -30.7052
389
root -10.8209 16.2077 2.89558 185.886 -53.7621 -177.607
lowerback 6.4817 1.45297 2.17443
upperback -10.6269 1.87456 0.694481
thorax -15.3745 0.471529 -0.746446
lowerneck -18.8882 6.39189 10.156
upperneck 26.4839 7.01855 -5.28894
head 12.502 3.30194 -2.59365
rclavicle 1.97294e-014 3.12092e-014
rhumerus -63.6449 14.7158 -85.6501
rradius 36.1456
rwrist 2.24817
rhand -27.4364 -12.3797
rfingers 7.12502
rthumb -0.841551 -42.3578
lclavicle 1.97294e-014 3.12092e-014
lhumerus -43.0935 -18.8707 91.7062
lradius 47.1703
lwrist -7.16361
lhand -28.9426 27.9025
lfingers 7.12502
lthumb -2.29632 57.8699
rfemur -9.81162 20.1435 30.4987
rtibia 7.64122
rfoot -9.82384 -6.38694
rtoes -17.4573
lfemur -0.772061 -14.66 -29.8525
ltibia 6.86747
lfoot -39.6436 -3.29492
ltoes -27.6554
390
root -10.822 16.2068 2.89794 186.03 -54.5437 -177.339
lowerback 6.34773 1.42846 2.19327
upperback -10.7121 1.84214 0.769345
thorax -15.3957 0.455913 -0.663452
lowerneck -19.0239 6.21795 9.8684
upperneck 26.5147 6.85893 -5.31153
head 12.5134 3.19741 -2.58094
rclavicle -4.30369e-014 -9.93923e-015
rhumerus -63.0835 14.6111 -86.1519
rradius 36.3088
rwrist 1.81039
rhand -27.4562 -12.9268
rfingers 7.12502
rthumb -0.860691 -42.9048
lclavicle -4.30369e-014 -9.93923e-015
lhumerus -43.7922 -18.6361 92.2525
lradius 46.4514
lwrist -7.48469
lhand -29.4843 26.6603
lfingers 7.12502
lthumb -2.8194 56.6214
rfemur -9.97098 20.3761 30.5144
rtibia 7.28198
rfoot -9.56915 -7.41115
rtoes -16.7537
lfemur -1.13441 -14.9897 -29.6021
ltibia 6.59974
lfoot -39.0096 -4.0887
ltoes -24.931
391
root -10.8239 16.2062 2.89589 186.418 -55.3679 -177.464
lowerback 6.30074 1.43344 1.99081
upperback -10.7772 1.81553 0.745578
thorax -15.4513 0.463148 -0.570899
lowerneck -19.2486 5.98951 9.57999
upperneck 26.6276 6.61084 -5.3236
head 12.568 3.05305 -2.57923
rclavicle -1.20265e-014 -9.34288e-015
rhumerus -62.5314 14.4865 -86.6867
rradius 36.4899
rwrist 1.56543
rhand -27.4487 -13.526
rfingers 7.12502
rthumb -0.853425 -43.504
lclavicle -1.20265e-014 -9.34288e-015
lhumerus -44.4699 -18.6625 92.7355
lradius 45.5752
lwrist -7.55296
lhand -30.3278 25.295
lfingers 7.12502
lthumb -3.63398 55.2438
rfemur -9.88367 21.0655 30.3254
rtibia 6.73026
rfoot -9.80154 -8.6726
rtoes -15.4512
lfemur -1.42159 -15.2898 -29.6092
ltibia 6.34316
lfoot -38.3278 -3.78638
ltoes -24.3571
392
root -10.8205 16.2071 2.89717 186.792 -56.375 -177.631
lowerback 6.3859 1.40711 1.83859
upperback -10.8162 1.75885 0.691654
thorax -15.559 0.450115 -0.537594
lowerneck -19.5114 5.71714 9.1514
upperneck 26.6554 6.31683 -5.23671
head 12.583 2.88862 -2.52186
rclavicle 2.46493e-014 2.44505e-014
rhumerus -61.9795 14.4573 -87.2497
rradius 36.7579
rwrist 1.31698
rhand -27.597 -13.9832
rfingers 7.12502
rthumb -0.996692 -43.9607
lclavicle 2.46493e-014 2.44505e-014
lhumerus -45.1313 -18.6627 93.1319
lradius 44.6781
lwrist -7.70307
lhand -31.0339 24.1684
lfingers 7.12502
lthumb -4.31585 54.1044
rfemur -9.79795 21.4937 30.0938
rtibia 6.23683
rfoot -9.97814 -9.89774
rtoes -14.3558
lfemur -1.79476 -15.5803 -29.6219
ltibia 6.28764
lfoot -37.4622 -3.82866
ltoes -23.4345
393
root -10.8146 16.2108 2.90229 187.046 -57.5469 -177.71
lowerback 6.59647 1.35447 1.78503
upperback -10.855 1.6871 0.648668
thorax -15.7465 0.419398 -0.546677
lowerneck -19.6819 5.3626 8.56175
upperneck 26.6678 5.92492 -5.01311
head 12.5554 2.68319 -2.40326
rclavicle -3.66758e-014 -2.96189e-014
rhumerus -61.389 14.6098 -87.8685
rradius 36.861
rwrist 1.20142
rhand -27.9186 -14.0819
rfingers 7.12502
rthumb -1.30729 -44.0576
lclavicle -3.66758e-014 -2.96189e-014
lhumerus -45.7697 -18.3826 93.3353
lradius 43.7931
lwrist -7.85302
lhand -31.646 24.6519
lfingers 7.12502
lthumb -4.90691 54.5751
rfemur -9.74265 21.358 29.9022
rtibia 5.82844
rfoot -10.0241 -10.8534
rtoes -14.9255
lfemur -2.2233 -15.8569 -29.5863
ltibia 6.40148
lfoot -36.4586 -4.3045
ltoes -21.8328
394
root -10.8092 16.216 2.90384 187.138 -58.8 -177.672
lowerback 6.80962 1.30473 1.72778
upperback -10.8352 1.62967 0.652395
thorax -15.8647 0.40343 -0.504443
lowerneck -19.8985 4.99846 8.01912
upperneck 26.7217 5.50791 -4.80625
head 12.5584 2.46874 -2.30288
rclavicle -3.47873e-014 9.74045e-015
rhumerus -60.8401 14.9308 -88.5338
rradius 37.0446
rwrist 1.32032
rhand -28.1746 -14.5605
rfingers 7.12502
rthumb -1.55458 -44.5346
lclavicle -3.47873e-014 9.74045e-015
lhumerus -46.2005 -17.8737 93.2981
lradius 42.8016
lwrist -7.96677
lhand -30.9605 26.4778
lfingers 7.12502
lthumb -4.24497 56.4152
rfemur -9.5733 21.1267 29.8091
rtibia 5.3874
rfoot -10.2136 -11.7902
rtoes -15.3106
lfemur -2.57355 -16.1677 -29.4919
ltibia 6.46616
lfoot -35.5399 -4.53117
ltoes -20.9327
395
root -10.8011 16.2192 2.90039 187.179 -60.0369 -177.553
lowerback 6.9586 1.28727 1.61644
upperback -10.7978 1.61077 0.686731
thorax -15.9207 0.415561 -0.404032
lowerneck -20.1187 4.65392 7.5685
upperneck 26.7842 5.1219 -4.70198
head 12.5782 2.26382 -2.25205
rclavicle 6.16232e-015 -1.92821e-014
rhumerus -60.3627 15.3537 -89.2003
rradius 37.4028
rwrist 1.41315
rhand -28.5093 -14.8905
rfingers 7.12502
rthumb -1.87782 -44.862
lclavicle 6.16232e-015 -1.92821e-014
lhumerus -46.505 -17.4226 93.1417
lradius 41.6909
lwrist -7.79202
lhand -28.7665 27.3028
lfingers 7.12502
lthumb -2.12616 57.272
rfemur -9.32273 21.1206 29.7597
rtibia 4.76631
rfoot -10.4819 -12.8583
rtoes -13.6976
lfemur -2.93722 -16.596 -29.3226
ltibia 6.4661
lfoot -34.6958 -5.32671
ltoes -19.0153
396
root -10.7907 16.2217 2.89433 187.157 -61.3071 -177.338
lowerback 7.12115 1.31491 1.61707
upperback -10.8287 1.65788 0.662457
thorax -16.0645 0.436465 -0.445132
lowerneck -20.1816 4.18192 7.04211
upperneck 26.9005 4.56821 -4.54276
head 12.5744 1.98313 -2.19921
rclavicle 6.4605e-016 -1.98785e-016
rhumerus -59.9283 15.7626 -89.9608
rradius 37.5774
rwrist 1.12563
rhand -28.9069 -14.8837
rfingers 7.12502
rthumb -2.2618 -44.8515
lclavicle 6.4605e-016 -1.98785e-016
lhumerus -46.9039 -16.9855 92.8411
lradius 40.5593
lwrist -7.786
lhand -27.496 28.0466
lfingers 7.12502
lthumb -0.899186 58.0245
rfemur -9.20925 21.1302 29.7364
rtibia 4.32351
rfoot -10.7656 -13.9241
rtoes -12.3212
lfemur -3.40295 -16.9843 -29.0473
ltibia 6.5484
lfoot -33.5403 -6.92216
ltoes -15.5797
